<?xml version="1.0" standalone="no"?>
<!DOCTYPE svg PUBLIC "-//W3C//DTD SVG 20010904//EN"
 "http://www.w3.org/TR/2001/REC-SVG-20010904/DTD/svg10.dtd">
<svg version="1.0" xmlns="http://www.w3.org/2000/svg"
 width="256.000000pt" height="256.000000pt" viewBox="0 0 256.000000 256.000000"
 preserveAspectRatio="xMidYMid meet">

<g transform="translate(0.000000,256.000000) scale(0.100000,-0.100000)"
fill="#000000" stroke="none">
<path d="M1010 2534 c-182 -48 -340 -196 -401 -374 -30 -89 -36 -224 -15 -314
49 -207 216 -377 423 -431 74 -19 203 -19 278 0 204 52 367 212 420 411 21 76
21 222 0 298 -51 193 -220 361 -411 410 -76 20 -220 20 -294 0z m321 -192 c80
-38 159 -118 197 -199 24 -52 27 -69 27 -168 0 -98 -3 -116 -27 -167 -137
-294 -551 -320 -716 -45 -139 230 -36 507 223 600 38 13 72 17 140 14 76 -3
100 -8 156 -35z"/>
<path d="M1035 1339 c-284 -30 -567 -192 -746 -428 -64 -84 -141 -242 -173
-351 -28 -99 -49 -253 -44 -325 l3 -50 685 -5 685 -5 55 -42 c108 -82 232
-123 370 -123 178 0 309 56 435 184 192 195 234 456 113 705 -68 139 -244 279
-399 316 -70 16 -213 19 -271 6 -32 -8 -50 -4 -117 25 -104 45 -245 81 -372
94 -111 11 -109 11 -224 -1z m349 -194 c60 -13 110 -26 112 -28 2 -1 -27 -34
-64 -73 -78 -81 -132 -181 -158 -289 -23 -98 -15 -236 19 -332 l25 -73 -534 0
c-457 0 -534 2 -534 14 0 37 33 163 60 236 105 270 365 491 653 554 107 24
295 20 421 -9z m667 -122 c94 -44 171 -119 216 -211 37 -75 38 -78 38 -191 0
-110 -2 -120 -32 -184 -120 -253 -438 -337 -660 -173 -68 50 -122 118 -154
196 -33 79 -33 241 0 320 50 120 149 215 270 258 56 19 81 22 162 19 81 -3
106 -9 160 -34z"/>
<path d="M1807 944 c-4 -4 -7 -58 -7 -121 l0 -113 -119 0 c-135 0 -131 3 -125
-95 1 -27 3 -56 3 -62 1 -10 32 -13 121 -13 l120 0 0 -120 c0 -66 3 -121 8
-121 22 -5 129 -6 140 -2 9 4 12 38 12 124 l0 118 123 3 122 3 0 80 0 80 -122
3 -122 3 -3 117 -3 117 -70 3 c-39 1 -74 0 -78 -4z"/>
</g>
</svg>
