<?xml version="1.0" standalone="no"?>
<!DOCTYPE svg PUBLIC "-//W3C//DTD SVG 20010904//EN"
 "http://www.w3.org/TR/2001/REC-SVG-20010904/DTD/svg10.dtd">
<svg version="1.0" xmlns="http://www.w3.org/2000/svg"
 width="3333.000000pt" height="3333.000000pt" viewBox="0 0 3333.000000 3333.000000"
 preserveAspectRatio="xMidYMid meet">

<g transform="translate(0.000000,3333.000000) scale(0.100000,-0.100000)"
fill="#000000" stroke="none">
<path d="M10645 30549 c-736 -6 -944 -14 -1275 -45 -719 -67 -1226 -216 -1736
-510 -509 -293 -987 -732 -1331 -1224 -458 -654 -659 -1302 -723 -2325 -29
-467 -31 -1352 -28 -11805 l3 -10645 23 -97 c67 -292 189 -515 387 -713 211
-212 458 -339 760 -391 68 -12 131 -15 260 -11 176 6 249 17 390 62 214 69
-15 -91 4794 3345 2472 1765 4495 3210 4496 3210 1 0 2024 -1445 4496 -3210
4809 -3436 4580 -3276 4794 -3345 141 -45 214 -56 390 -62 248 -8 425 28 634
128 156 74 262 149 386 274 200 200 323 427 387 718 l23 102 0 10970 c0 11253
0 11146 -36 11625 -32 425 -95 793 -190 1110 -251 835 -854 1627 -1635 2148
-575 383 -1140 570 -1954 646 -330 31 -521 37 -1380 46 -1006 10 -10810 10
-11935 -1z"/>
</g>
</svg>
