<?xml version="1.0" standalone="no"?>
<!DOCTYPE svg PUBLIC "-//W3C//DTD SVG 20010904//EN"
 "http://www.w3.org/TR/2001/REC-SVG-20010904/DTD/svg10.dtd">
<svg version="1.0" xmlns="http://www.w3.org/2000/svg"
 width="256.000000pt" height="256.000000pt" viewBox="0 0 256.000000 256.000000"
 preserveAspectRatio="xMidYMid meet">

<g transform="translate(0.000000,256.000000) scale(0.100000,-0.100000)"
fill="#000000" stroke="none">
<path d="M729 2225 c-182 -36 -356 -178 -444 -360 -53 -110 -68 -179 -68 -310
-1 -154 42 -272 148 -410 87 -114 504 -519 766 -745 125 -107 175 -105 315 17
312 271 698 651 774 762 88 130 124 243 124 386 -1 120 -17 192 -69 300 -72
149 -193 263 -348 328 -62 26 -88 30 -187 34 -84 4 -133 1 -182 -11 -75 -17
-188 -71 -235 -110 -17 -14 -36 -26 -42 -26 -6 0 -33 16 -60 35 -74 53 -170
93 -267 110 -102 18 -136 18 -225 0z"/>
</g>
</svg>
