<?xml version="1.0" standalone="no"?>
<!DOCTYPE svg PUBLIC "-//W3C//DTD SVG 20010904//EN"
 "http://www.w3.org/TR/2001/REC-SVG-20010904/DTD/svg10.dtd">
<svg version="1.0" xmlns="http://www.w3.org/2000/svg"
 width="800.000000pt" height="800.000000pt" viewBox="0 0 800.000000 800.000000"
 preserveAspectRatio="xMidYMid meet">

<g transform="translate(0.000000,800.000000) scale(0.100000,-0.100000)"
fill="#000000" stroke="none">
<path d="M3530 7764 c-112 -48 -168 -196 -114 -298 29 -55 1710 -1735 1759
-1757 79 -36 187 -19 249 39 65 61 85 176 46 256 -28 58 -1711 1739 -1762
1761 -47 19 -132 19 -178 -1z"/>
<path d="M2232 6087 l-992 -992 770 -770 770 -770 260 260 260 260 180 -180
180 -180 -967 -967 -968 -968 -421 0 c-449 0 -466 -2 -532 -50 -16 -12 -39
-39 -50 -59 -31 -55 -282 -950 -282 -1005 0 -25 7 -64 16 -86 15 -37 15 -43 0
-74 -38 -81 -18 -122 140 -278 136 -133 165 -150 231 -134 18 5 91 70 198 176
l170 170 1870 2 1870 3 40 22 c80 43 125 114 125 198 0 47 -247 941 -274 993
-8 15 -29 41 -48 59 -68 66 -10 63 -1182 63 l-1061 0 765 765 765 765 1190
-1188 c654 -654 1209 -1203 1231 -1220 61 -47 180 -100 259 -117 242 -51 495
38 655 230 86 104 150 283 150 420 0 122 -48 274 -121 382 -17 26 -569 586
-1225 1243 l-1194 1195 1180 1180 c985 985 1181 1186 1186 1213 13 67 -8 100
-148 239 -140 138 -166 154 -235 139 -21 -5 -350 -328 -1208 -1186 l-1180
-1180 -177 177 -178 178 260 260 260 260 -773 773 -772 772 -993 -993z m1456
-100 l452 -452 -681 -680 -681 -680 -455 460 -455 460 677 673 c372 369 680
672 683 672 4 0 211 -204 460 -453z m422 -1472 l175 -175 -155 -155 -155 -155
-177 177 -178 178 152 152 c84 84 155 153 158 153 3 0 84 -79 180 -175z m1781
-1782 c1190 -1191 1197 -1198 1209 -1250 32 -138 -73 -272 -213 -273 -26 0
-64 7 -85 15 -26 11 -384 363 -1229 1208 l-1193 1192 152 152 c84 84 155 153
158 153 3 0 544 -539 1201 -1197z m-4746 -1533 c-71 -71 -130 -128 -132 -127
-1 2 9 43 23 92 13 50 29 107 35 128 l10 37 97 0 97 0 -130 -130z m3366 -90
l66 -220 -1466 0 -1466 0 220 220 220 220 1180 0 1180 0 66 -220z"/>
<path d="M686 4915 c-51 -18 -112 -79 -132 -132 -21 -53 -14 -140 14 -184 33
-52 1703 -1729 1741 -1748 113 -57 248 -15 301 95 26 53 30 129 11 189 -11 33
-164 191 -865 894 -904 906 -898 901 -991 900 -22 0 -57 -6 -79 -14z"/>
</g>
</svg>
