<?xml version="1.0" standalone="no"?>
<!DOCTYPE svg PUBLIC "-//W3C//DTD SVG 20010904//EN"
 "http://www.w3.org/TR/2001/REC-SVG-20010904/DTD/svg10.dtd">
<svg version="1.0" xmlns="http://www.w3.org/2000/svg"
 width="256.000000pt" height="256.000000pt" viewBox="0 0 256.000000 256.000000"
 preserveAspectRatio="xMidYMid meet">

<g transform="translate(0.000000,256.000000) scale(0.100000,-0.100000)"
fill="#000000" stroke="none">
<path d="M1016 2534 c-142 -34 -296 -153 -364 -281 -40 -76 -72 -197 -72 -272
1 -152 64 -304 170 -411 229 -228 589 -226 815 4 112 114 165 243 165 401 0
162 -53 289 -170 405 -83 84 -162 129 -271 155 -79 18 -195 18 -273 -1z m314
-190 c207 -98 294 -349 191 -552 -36 -71 -123 -155 -198 -190 -52 -24 -69 -27
-168 -27 -100 0 -115 2 -167 28 -138 68 -227 198 -236 346 -8 133 39 246 137
332 88 78 151 99 281 96 83 -2 103 -6 160 -33z"/>
<path d="M932 1319 c-414 -87 -749 -423 -831 -834 -23 -117 -36 -254 -26 -284
l6 -21 680 0 679 0 62 -46 c194 -144 448 -164 661 -52 86 45 203 164 249 253
124 243 81 525 -111 715 -45 45 -101 89 -138 108 -120 63 -288 88 -412 61 -44
-9 -54 -8 -92 12 -191 97 -503 135 -727 88z m328 -150 c79 -9 226 -42 236 -52
2 -2 -25 -34 -61 -71 -174 -181 -220 -439 -120 -678 7 -17 -22 -18 -529 -18
l-536 0 0 24 c0 13 11 66 24 118 42 164 127 308 252 429 146 139 319 223 509
248 99 12 130 12 225 0z m747 -127 c159 -50 274 -184 303 -354 30 -171 -60
-362 -212 -451 -118 -69 -288 -77 -411 -20 -94 45 -169 119 -215 213 -36 73
-37 78 -37 190 0 109 2 118 32 181 59 119 148 200 268 241 68 24 196 23 272 0z"/>
<path d="M1935 730 l-169 -169 -54 51 -54 51 -54 -54 c-30 -29 -54 -58 -54
-64 0 -14 122 -135 136 -135 5 0 25 -16 44 -35 19 -19 39 -35 44 -35 6 0 112
101 235 225 l225 226 -54 54 c-30 30 -59 55 -65 55 -6 0 -86 -76 -180 -170z"/>
</g>
</svg>
